<?xml version="1.0" encoding="iso-8859-1"?>
<!-- Generator: Adobe Illustrator 19.0.0, SVG Export Plug-In . SVG Version: 6.00 Build 0)  -->
<svg version="1.1" id="Layer_1" xmlns="http://www.w3.org/2000/svg" xmlns:xlink="http://www.w3.org/1999/xlink" x="0px" y="0px"
	 viewBox="0 0 487.993 487.993" style="enable-background:new 0 0 487.993 487.993;" xml:space="preserve">
<g transform="translate(0 -540.36)">
	<g>
		<g>
			<path d="M469.593,815.356c-12-12.4-28-19.3-45.1-19.3c-35.2,0-62.7,28.8-62.7,65.7c0,36.3,27.6,64.8,62.7,64.8
				c35.6,0,63.5-28.4,63.5-64.8C487.993,844.156,481.493,827.756,469.593,815.356z M424.493,906.556c-24.4,0-42.7-19.2-42.7-44.8
				c0-25.6,18.8-45.7,42.7-45.7c24.4,0,43.5,20.1,43.5,45.7C467.993,886.856,448.893,906.556,424.493,906.556z"/>
			<path d="M424.493,716.956c5.5,0,10-4.5,10-10v-32.7c0-5.5-4.5-10-10-10s-10,4.5-10,10v32.7
				C414.493,712.456,418.993,716.956,424.493,716.956z"/>
			<path d="M84.693,796.056c-35.2,0-62.7,28.8-62.7,65.7c0,36.3,27.6,64.8,62.7,64.8c35.7,0,63.6-28.4,63.5-64.8
				c0-17.6-6.5-34-18.4-46.4C117.793,802.956,101.793,796.056,84.693,796.056z M84.693,906.556c-24.4,0-42.7-19.2-42.7-44.8
				c0-25.6,18.8-45.7,42.7-45.7c24.4,0,43.6,20.1,43.5,45.7C128.193,886.856,109.093,906.556,84.693,906.556z"/>
			<path d="M415.793,777.956c1.8,3.4,5.3,5.3,8.9,5.3c1.6,0,3.2-0.4,4.6-1.2c4.7-2.5,6.6-8.5,4-13.4v0l-63.7-121.2
				c-1.7-3.3-5.1-5.3-8.9-5.3h-31.4c-5.5,0-10,4.5-10,10s4.5,10,10,10h25.4l18.3,34.8h-118.4c-3.4,0-6.6,1.7-8.4,4.6l-11.4,17.8
				l-203.6-0.3c-3.8,0-7.4,2.2-9,5.7l-21.2,44.2c-1.5,3.1-1.3,6.7,0.6,9.7c1.8,2.9,5,4.7,8.5,4.7h122.3l60.7,84.3
				c1.9,2.6,4.9,4.2,8.1,4.2h106.2c3.8,0,7.3-2.2,9-5.7l69.8-144.5L415.793,777.956z M300.993,851.756h-94.8l-60.7-84.3
				c-1.9-2.6-4.9-4.2-8.1-4.2h-111.5l11.6-24.2l184.5,0.3l-18.3,28.6c-2,3.1-2.1,7-0.4,10.2c1.8,3.2,5.1,5.2,8.8,5.2h121.9
				L300.993,851.756z M343.493,763.256h-113.1l29.7-46.3h105.9L343.493,763.256z"/>
		</g>
	</g>
</g>
<g>
</g>
<g>
</g>
<g>
</g>
<g>
</g>
<g>
</g>
<g>
</g>
<g>
</g>
<g>
</g>
<g>
</g>
<g>
</g>
<g>
</g>
<g>
</g>
<g>
</g>
<g>
</g>
<g>
</g>
</svg>
